<?xml version="1.0" encoding="UTF-8" standalone="no"?>
<svg
   xmlns:dc="http://purl.org/dc/elements/1.1/"
   xmlns:cc="http://creativecommons.org/ns#"
   xmlns:rdf="http://www.w3.org/1999/02/22-rdf-syntax-ns#"
   xmlns:svg="http://www.w3.org/2000/svg"
   xmlns="http://www.w3.org/2000/svg"
   xmlns:sodipodi="http://sodipodi.sourceforge.net/DTD/sodipodi-0.dtd"
   xmlns:inkscape="http://www.inkscape.org/namespaces/inkscape"
   width="210mm"
   height="297mm"
   viewBox="0 0 210 297"
   version="1.1"
   id="svg8"
   inkscape:version="1.0.2-2 (e86c870879, 2021-01-15)"
   sodipodi:docname="boat.svg">
  <defs
     id="defs2" />
  <sodipodi:namedview
     id="base"
     pagecolor="#ffffff"
     bordercolor="#666666"
     borderopacity="1.0"
     inkscape:pageopacity="0.0"
     inkscape:pageshadow="2"
     inkscape:zoom="0.35"
     inkscape:cx="378.18726"
     inkscape:cy="472.53412"
     inkscape:document-units="mm"
     inkscape:current-layer="layer1"
     inkscape:document-rotation="0"
     showgrid="false"
     inkscape:window-width="1366"
     inkscape:window-height="697"
     inkscape:window-x="-8"
     inkscape:window-y="-8"
     inkscape:window-maximized="1" />
  <metadata
     id="metadata5">
    <rdf:RDF>
      <cc:Work
         rdf:about="">
        <dc:format>image/svg+xml</dc:format>
        <dc:type
           rdf:resource="http://purl.org/dc/dcmitype/StillImage" />
        <dc:title />
      </cc:Work>
    </rdf:RDF>
  </metadata>
  <g
     inkscape:label="Layer 1"
     inkscape:groupmode="layer"
     id="layer1">
    <path
       id="path847"
       style="fill:#011e39;fill-opacity:1;stroke:none;stroke-width:0.31756px;stroke-linecap:butt;stroke-linejoin:miter;stroke-opacity:1"
       d="m 27.083036,276.71421 c 3.17425,-0.01 7.647139,-0.0526 13.193003,-0.19289 2.817646,-0.0713 5.896793,-0.16703 9.191871,-0.29524 3.295081,-0.1282 6.806443,-0.28862 10.488163,-0.48936 3.681721,-0.20074 7.53398,-0.44173 11.511549,-0.73064 3.977568,-0.2889 8.080023,-0.62572 12.26265,-1.01842 4.182627,-0.3927 8.445193,-0.84123 12.742059,-1.35335 4.296869,-0.51213 8.628239,-1.08823 12.948609,-1.73542 4.32036,-0.64718 8.62984,-1.3655 12.88288,-2.16337 4.25305,-0.79788 8.44993,-1.67491 12.54486,-2.6391 2.04747,-0.4821 4.0694,-0.98615 6.06031,-1.51275 1.99092,-0.52661 3.9506,-1.07613 5.87362,-1.64921 1.92302,-0.57307 3.80905,-1.16974 5.65282,-1.79123 1.84376,-0.62149 3.64534,-1.26761 5.39852,-1.93948 1.75317,-0.67186 3.45826,-1.3691 5.10949,-2.09328 1.65122,-0.7242 3.24841,-1.47547 4.78634,-2.25394 1.53793,-0.77847 3.01643,-1.58421 4.42971,-2.41891 1.06474,-0.62885 2.05391,-1.29076 3.04225,-1.9525 -29.59386,6.03086 -84.968493,13.84904 -160.996628,9.4288 0,0 -1.814186,6.80494 7.712612,16.7854 z" />
    <path
       id="path851"
       style="fill:#01172b;fill-opacity:1;stroke:none;stroke-width:0.31756px;stroke-linecap:butt;stroke-linejoin:miter;stroke-opacity:1"
       d="m 199.70557,245.67333 c 0,0 -9.80889,1.55829 -25.77408,4.81179 -0.98835,0.66174 -1.97752,1.32365 -3.04225,1.9525 -1.41328,0.83471 -2.89179,1.64044 -4.42971,2.41891 -1.53794,0.77848 -3.13512,1.52975 -4.78635,2.25394 -1.65122,0.72418 -3.35632,1.42142 -5.1095,2.09328 -1.75317,0.67187 -3.55474,1.31798 -5.39851,1.93948 -1.84377,0.62149 -3.7298,1.21816 -5.65281,1.79123 -1.92302,0.57307 -3.88271,1.1226 -5.87362,1.64921 -1.99093,0.5266 -4.01284,1.03065 -6.06031,1.51275 -4.09494,0.96419 -8.29181,1.84122 -12.54486,2.6391 -4.25305,0.79787 -8.56253,1.51618 -12.88288,2.16337 -4.32036,0.64719 -8.651737,1.22329 -12.9486,1.73542 -4.296866,0.51212 -8.559435,0.96065 -12.742062,1.35335 -4.182627,0.3927 -8.285082,0.72952 -12.262651,1.01843 -3.977567,0.28889 -7.829827,0.52989 -11.511547,0.73062 -3.68172,0.20074 -7.193083,0.36118 -10.488164,0.48937 -3.295078,0.12821 -6.374225,0.22394 -9.191871,0.29523 -5.545864,0.14035 -10.018753,0.18313 -13.193002,0.1929 l 152.888307,0.43851 c 0,0 12.38498,-10.15752 21.00447,-31.47939 z"
       sodipodi:nodetypes="ccssssssssssssssssccc" />
    <path
       style="fill:#6a4336;fill-opacity:1;stroke:none;stroke-width:0.31756px;stroke-linecap:butt;stroke-linejoin:miter;stroke-opacity:1"
       d="M 19.700177,274.13792 H 181.56328 l 1.56572,-1.99335 H 18.131142 Z"
       id="path882" />
    <path
       style="fill:#cfdce0;fill-opacity:1;stroke:none;stroke-width:0.31756px;stroke-linecap:butt;stroke-linejoin:miter;stroke-opacity:1"
       d="m 32.321594,260.85056 10.752396,-9.10976 24.713734,-0.51544 31.286592,8.58689 c 0,0 -32.457661,2.94205 -66.752722,1.03831 z"
       id="path886" />
    <path
       style="fill:#07131a;fill-opacity:1;stroke:none;stroke-width:0.31756px;stroke-linecap:butt;stroke-linejoin:miter;stroke-opacity:1"
       d="m 39.344607,258.95255 15.572215,0.44872 0.597353,-5.42289 -11.040368,0.27533 c 0,0 -3.154311,0.29803 -5.1292,4.69884 z"
       id="path888" />
    <path
       style="fill:#07131a;fill-opacity:1;stroke:none;stroke-width:0.31756px;stroke-linecap:butt;stroke-linejoin:miter;stroke-opacity:1"
       d="m 58.939434,259.40319 26.067029,0.006 -0.02848,-0.64594 -18.147593,-4.43739 -7.466358,-0.19863 z"
       id="path890" />
    <path
       style="fill:none;fill-opacity:1;stroke:#8d4501;stroke-width:3.60068;stroke-linecap:butt;stroke-linejoin:miter;stroke-miterlimit:4;stroke-dasharray:none;stroke-opacity:1"
       d="M 113.74138,258.96603 113.49857,25.98872"
       id="path894" />
    <path
       style="fill:none;stroke:#8d4501;stroke-width:3.60068;stroke-linecap:butt;stroke-linejoin:miter;stroke-miterlimit:4;stroke-dasharray:none;stroke-opacity:1"
       d="m 113.93298,227.52324 -69.332947,0.72949"
       id="path896" />
    <path
       id="path898"
       style="fill:#f5f5f5;fill-opacity:1;stroke:none;stroke-width:0.31756px;stroke-linecap:butt;stroke-linejoin:miter;stroke-opacity:1"
       d="m 111.54586,73.122397 c -0.46176,3.750878 -0.923,7.506425 -1.39863,11.076141 -0.64259,4.822845 -1.29767,9.481968 -1.96304,13.983724 -0.66537,4.501778 -1.34105,8.846198 -2.0263,13.037938 -0.68525,4.19174 -1.3799,8.23099 -2.08213,12.12372 -0.70223,3.89273 -1.41234,7.63886 -2.12864,11.2436 -0.71631,3.60475 -1.43899,7.06795 -2.166477,10.39575 -0.727487,3.3278 -1.459861,6.52011 -2.195618,9.582 -0.735757,3.06189 -1.474951,5.99349 -2.216088,8.8005 -0.741134,2.80702 -1.484251,5.48934 -2.227868,8.05251 -0.743614,2.56316 -1.487781,5.00701 -2.230965,7.33737 -0.743197,2.33035 -1.484912,4.54716 -2.224779,6.65573 -0.73987,2.10858 -1.477492,4.10914 -2.211135,6.00697 -0.733643,1.89783 -1.463672,3.69296 -2.188188,5.39108 -0.724516,1.69812 -1.443443,3.29923 -2.155934,4.80867 -0.71249,1.50945 -1.418676,2.92735 -2.116238,4.25915 -0.697565,1.3318 -1.386889,2.57731 -2.066623,3.7425 -0.679734,1.16519 -1.349932,2.24971 -2.008938,3.25933 -0.659004,1.00961 -1.306579,1.94458 -1.941952,2.80966 -0.635378,0.86507 -1.258062,1.66068 -1.866907,2.39224 -0.608845,0.73156 -1.203758,1.39923 -1.783172,2.00832 -0.579417,0.60909 -1.143676,1.15962 -1.690759,1.65727 -0.547086,0.49764 -1.077189,0.94184 -1.589041,1.33908 -1.023706,0.79448 -1.974058,1.39918 -2.839431,1.85822 -0.652243,0.34599 -1.205146,0.5424 -1.755884,0.74181 L 111.89257,224.911 Z" />
    <path
       id="path902"
       style="fill:#ffffff;fill-opacity:1;stroke:none;stroke-width:0.31756px;stroke-linecap:butt;stroke-linejoin:miter;stroke-opacity:1"
       d="M 111.47081,40.182373 C 93.381259,126.76819 45.543688,225.95113 45.543688,225.95113 l 16.927435,-0.26545 c 0.550738,-0.19941 1.103641,-0.39582 1.755884,-0.74181 0.865373,-0.45904 1.815725,-1.06374 2.839431,-1.85822 0.511852,-0.39724 1.041955,-0.84144 1.589041,-1.33908 0.547083,-0.49765 1.111342,-1.04818 1.690759,-1.65727 0.579414,-0.60909 1.174327,-1.27676 1.783172,-2.00832 0.608845,-0.73156 1.231529,-1.52717 1.866907,-2.39224 0.635373,-0.86508 1.282948,-1.80005 1.941952,-2.80966 0.659006,-1.00962 1.329204,-2.09414 2.008938,-3.25933 0.679734,-1.16519 1.369058,-2.4107 2.066623,-3.7425 0.697562,-1.3318 1.403748,-2.7497 2.116238,-4.25915 0.712491,-1.50944 1.431418,-3.11055 2.155934,-4.80867 0.724516,-1.69812 1.454545,-3.49325 2.188188,-5.39108 0.733643,-1.89783 1.471265,-3.89839 2.211135,-6.00697 0.739867,-2.10857 1.481582,-4.32538 2.224779,-6.65573 0.743184,-2.33036 1.487351,-4.77421 2.230965,-7.33737 0.743617,-2.56317 1.486734,-5.24549 2.227868,-8.05251 0.741137,-2.80701 1.480331,-5.73861 2.216088,-8.8005 0.735757,-3.06189 1.468131,-6.2542 2.195618,-9.582 0.727487,-3.3278 1.450167,-6.791 2.166477,-10.39575 0.7163,-3.60474 1.42641,-7.35087 2.12864,-11.2436 0.70223,-3.89273 1.39688,-7.93198 2.08213,-12.12372 0.68525,-4.19174 1.36093,-8.53616 2.0263,-13.037938 0.66537,-4.501756 1.32045,-9.160879 1.96304,-13.983724 0.47563,-3.569716 0.93687,-7.325263 1.39863,-11.076141 z" />
    <path
       id="path905"
       style="fill:#ffffff;fill-opacity:1;stroke:none;stroke-width:0.31756px;stroke-linecap:butt;stroke-linejoin:miter;stroke-opacity:1"
       d="M 115.3541,30.356002 C 144.4527,173.36229 80.744465,253.13538 80.744465,253.13538 c 0,0 1.268106,-0.25743 3.488819,-0.7542 2.220709,-0.49678 5.394089,-1.23344 9.203635,-2.19253 3.809549,-0.9591 8.255221,-2.14032 13.021781,-3.52727 2.38328,-0.69348 4.84696,-1.43824 7.35102,-2.23223 2.50405,-0.79398 5.04892,-1.63727 7.59477,-2.52745 2.54584,-0.89018 5.09293,-1.82759 7.60159,-2.80966 2.50865,-0.98207 4.97899,-2.00857 7.37148,-3.07823 2.39249,-1.06965 4.70712,-2.18207 6.90445,-3.33499 2.19733,-1.15293 4.27728,-2.34686 6.20048,-3.57876 0.9616,-0.61594 1.88365,-1.24132 2.7619,-1.8762 0.87826,-0.63488 1.71265,-1.27876 2.49769,-1.93203 0.78503,-0.65328 1.52112,-1.3161 2.20307,-1.98723 0.68195,-0.67114 1.3097,-1.35088 1.87869,-2.03934 0.56899,-0.68845 1.079,-1.38557 1.52516,-2.0908 0.44615,-0.70524 0.8284,-1.41834 1.14185,-2.13981 0.31344,-0.72148 0.55791,-1.45101 0.72877,-2.18819 0.17087,-0.73718 0.26814,-1.48236 0.28655,-2.2347 -0.0585,-0.0549 0.0697,-0.70242 0.22514,-2.07407 0.0777,-0.68582 0.16237,-1.55259 0.23383,-2.61677 0.0715,-1.06417 0.1297,-2.32612 0.15506,-3.80141 0.0254,-1.47529 0.0178,-3.16426 -0.0428,-5.08344 -0.0606,-1.91918 -0.174,-4.06824 -0.36036,-6.46408 -0.18636,-2.39584 -0.44565,-5.03808 -0.79762,-7.94334 -0.35197,-2.90527 -0.79656,-6.07376 -1.35397,-9.52122 -0.55742,-3.44746 -1.22795,-7.17404 -2.03065,-11.19647 -0.8027,-4.02243 -1.73797,-8.3408 -2.82579,-12.97096 -1.08781,-4.63016 -2.32786,-9.57216 -3.74063,-14.84282 -1.41277,-5.27067 -2.99824,-10.87 -4.7758,-16.81393 -1.77757,-5.94394 -3.74726,-12.23244 -5.92944,-18.88242 -2.18219,-6.649944 -4.57675,-13.661262 -7.20341,-21.050041 -2.62664,-7.388791 -5.48549,-15.154856 -8.59644,-23.315226 -3.11095,-8.160373 -6.47412,-16.714841 -10.1092,-25.679561 z" />
    <path
       id="path911"
       style="fill:#f5f5f5;fill-opacity:1;stroke:none;stroke-width:0.31756px;stroke-linecap:butt;stroke-linejoin:miter;stroke-opacity:1"
       d="m 115.3541,30.356002 c 3.63508,8.96472 6.99825,17.519188 10.1092,25.679561 3.11095,8.16037 5.9698,15.926435 8.59644,23.315226 2.62666,7.388779 5.02122,14.400097 7.20341,21.050041 2.18218,6.64998 4.15187,12.93848 5.92944,18.88242 1.77756,5.94393 3.36303,11.54326 4.7758,16.81393 1.41277,5.27066 2.65282,10.21266 3.74063,14.84282 1.08782,4.63016 2.02309,8.94853 2.82579,12.97096 0.8027,4.02243 1.47323,7.74901 2.03065,11.19647 0.55741,3.44746 1.002,6.61595 1.35397,9.52122 0.35197,2.90526 0.61126,5.5475 0.79762,7.94334 0.18636,2.39584 0.29977,4.5449 0.36036,6.46408 0.0606,1.91918 0.0682,3.60815 0.0428,5.08344 -0.0254,1.47529 -0.0836,2.73724 -0.15506,3.80141 -0.0715,1.06418 -0.1561,1.93095 -0.23383,2.61677 -0.15545,1.37165 -0.28364,2.01921 -0.22514,2.07407 -0.0184,0.75234 -0.11568,1.49752 -0.28655,2.2347 -0.17086,0.73718 -0.41533,1.46671 -0.72877,2.18819 -0.31345,0.72147 -0.6957,1.43457 -1.14185,2.13981 -0.44616,0.70523 -0.95617,1.40235 -1.52516,2.0908 -0.56899,0.68846 -1.19674,1.3682 -1.87869,2.03934 -0.68195,0.67113 -1.41804,1.33395 -2.20307,1.98723 -0.78504,0.65327 -1.61943,1.29715 -2.49769,1.93203 -0.87825,0.63488 -1.8003,1.26026 -2.7619,1.8762 -1.9232,1.2319 -4.00315,2.42583 -6.20048,3.57876 -2.19733,1.15292 -4.51196,2.26534 -6.90445,3.33499 -2.39249,1.06966 -4.86283,2.09616 -7.37148,3.07823 -2.50866,0.98207 -5.05575,1.91948 -7.60159,2.80966 -2.54585,0.89018 -5.09072,1.73347 -7.59477,2.52745 -2.50406,0.79399 -4.96774,1.53875 -7.35102,2.23223 -4.76656,1.38695 -9.212232,2.56817 -13.021781,3.52727 -3.809546,0.95909 -6.982926,1.69575 -9.203635,2.19253 -2.220713,0.49677 -3.488819,0.7542 -3.488819,0.7542 l 119.595995,-7.46204 c 0,0 -7.36138,-36.4221 -84.98636,-215.317338 z" />
    <path
       style="fill:none;stroke:#82350b;stroke-width:0.31756px;stroke-linecap:butt;stroke-linejoin:miter;stroke-opacity:1"
       d="m 80.744466,253.13538 -66.539355,6.77854 30.394922,-31.66119"
       id="path914" />
    <path
       style="fill:none;stroke:#82350b;stroke-width:0.31756px;stroke-linecap:butt;stroke-linejoin:miter;stroke-opacity:1"
       d="M 14.205111,259.91392 111.74422,27.600496"
       id="path916" />
    <path
       id="path911-8"
       style="fill:#be83d7;fill-opacity:1;stroke:none;stroke-width:0.423799;stroke-linecap:butt;stroke-linejoin:miter;stroke-miterlimit:4;stroke-dasharray:none;stroke-opacity:1"
       d="m 193.95768,203.77577 c -0.22007,0.002 -0.35205,0.005 -0.35205,0.005 0,0 -1.35003,0.16883 -0.99003,1.14074 0,0 -0.26993,1.09852 0.99003,2.95769 0,0 5e-5,0.80288 -0.76494,1.69018 l -1.2602,0.84501 c 0,0 -2.65487,0.76061 -3.46484,1.69018 -0.80998,0.92957 -4.54476,4.94363 -4.54476,4.94363 l -2.06994,6.25344 -0.5401,1.05633 -0.0447,0.8873 c 0,0 -0.0452,0.7182 0.40488,0.0842 l 0.31499,-0.59156 0.13502,0.4225 c 0,0 0.13503,0.42275 0.31501,-0.16883 0,0 0.26997,-0.88746 0.31497,-0.97198 l 3.24,-5.57747 2.38494,-1.22515 c 0,0 0.225,2.83079 -0.94496,6.92937 0,0 -0.72015,5.53527 -2.9701,8.57748 0,0 -2.24974,7.69769 -2.11474,12.85254 0,0 -1.66491,0.46475 -0.13503,1.77463 0,0 -0.22503,-0.0421 0.76494,1.52114 l 1.93499,-0.1267 c 0,0 -1.98015,-0.8451 -1.08018,-2.70425 l 6.66003,-14.1204 c 0,0 0.0899,8.53782 1.79976,13.77722 l 0.0902,1.3521 4.49968,-0.84761 c 0,0 -2.60991,-1.09865 -2.69991,-1.69019 0,0 1.44011,-14.78864 1.53011,-19.60551 0,0 1.61979,-3.21118 1.79976,-9.38013 l 4.76987,-0.16908 c 0,0 0.72015,0.0846 0.90014,-1.43653 0,0 0.26992,-4.05636 -0.36007,-6.33804 h -1.07989 c 0,0 -0.36013,3.12667 -0.72012,4.90129 0,0 -2.24982,-0.50691 -4.85975,-1.26746 l -0.5849,-0.67618 0.31499,-1.22512 c 0,0 1.79985,-0.1267 1.52986,-1.81695 l 11.56245,0.17652 -0.0637,-2.33033 -11.53178,1.16328 -0.0112,-0.36163 c 0,0 0.85505,0.21123 1.17007,-0.59153 0,0 0.31503,-1.01423 -1.07993,-1.43675 -1.04622,-0.31689 -2.49764,-0.34857 -3.15786,-0.34461 z"
       sodipodi:nodetypes="ccccccscccccccccccccccccccccccccccccccccccccccscc" />
  </g>
</svg>
